# xmcd CD database file
#
# Track frame offsets:
#	150
#	14498
#	29936
#	41865
#	57415
#	69302
#	83109
#	99354
#	113797
#	127033
#	140194
#	153055
#	169461
#
# Disc length: 2428 seconds
#
# Revision: 0
# Processed by: cddbd v1.5.1PL2 Copyright (c) Steve Scherf et al.
# Submitted via: CDex 1.51
#
DISCID=bc097a0d
DTITLE=Anita Ree - Bush Girl's Heart
DYEAR=2006
DGENRE=Country
TTITLE0=Bush Girl's Heart
TTITLE1=Endless Road
TTITLE2=Saltwater Creek Sliprails
TTITLE3=Ten Bucks Of Fuel
TTITLE4=Itching Feet
TTITLE5=Ballad Of Joe Daley
TTITLE6=Dust and Diesel
TTITLE7=Grandad's Song
TTITLE8=Didn't But Still Could
TTITLE9=Tattoed Not Tailored
TTITLE10=Madly Barking
TTITLE11=Past Carin'
TTITLE12=Picanninny Dawning
EXTD=YEAR: 2006
EXTT0=
EXTT1=
EXTT2=
EXTT3=
EXTT4=
EXTT5=
EXTT6=
EXTT7=
EXTT8=
EXTT9=
EXTT10=
EXTT11=
EXTT12=
PLAYORDER=
